<svg width="388" height="358" viewBox="0 0 388 358" fill="none" xmlns="http://www.w3.org/2000/svg">
<g clip-path="url(#clip0)">
<path d="M323.525 63.737C395.225 135.537 395.225 251.837 323.525 323.637C251.725 395.337 135.425 395.337 63.625 323.637C-8.07499 251.837 -8.07499 135.537 63.625 63.737C135.425 -8.06301 251.825 -8.06301 323.525 63.737ZM225.325 193.637L284.925 134.037L253.225 102.337L193.625 161.937L134.025 102.337L102.325 134.037L161.925 193.637L102.325 253.237L134.025 284.937L193.625 225.337L253.225 284.937L284.925 253.237L225.325 193.637Z" fill="#FFF4F2"/>
<path d="M284.925 134.037L225.325 193.637L284.925 253.238L253.225 284.938L193.625 225.338L134.025 284.938L102.325 253.238L161.925 193.637L102.325 134.037L134.025 102.337L193.625 161.938L253.225 102.337L284.925 134.037Z" fill="#7E57C2"/>
<path d="M193.625 387.237C243.225 387.237 292.825 368.337 330.625 330.637C406.125 255.137 406.125 132.137 330.625 56.637C255.125 -18.863 132.125 -18.863 56.625 56.637C-18.875 132.137 -18.875 255.137 56.625 330.637C94.425 368.438 144.025 387.237 193.625 387.237ZM70.725 70.738C104.625 36.938 149.125 20.038 193.625 20.038C238.125 20.038 282.625 36.938 316.525 70.838C384.225 138.638 384.225 248.838 316.525 316.538C248.725 384.238 138.525 384.238 70.825 316.538C3.02499 248.738 3.025 138.537 70.725 70.738Z" fill="#512996"/>
<path d="M95.225 260.237L126.925 291.937C130.825 295.837 137.125 295.837 141.025 291.937L193.525 239.437L246.025 291.937C248.025 293.937 250.525 294.837 253.125 294.837C255.725 294.837 258.225 293.837 260.225 291.937L291.925 260.237C295.825 256.337 295.825 250.037 291.925 246.137L239.525 193.637L292.025 141.137C295.925 137.237 295.925 130.937 292.025 127.037L260.325 95.337C256.425 91.437 250.125 91.437 246.225 95.337L193.625 147.737L141.125 95.237C137.225 91.337 130.925 91.337 127.025 95.237L95.325 126.937C91.425 130.837 91.425 137.137 95.325 141.037L147.825 193.537L95.325 246.037C91.325 250.037 91.325 256.338 95.225 260.237ZM168.925 200.738C172.825 196.838 172.825 190.538 168.925 186.638L116.425 134.138L134.025 116.538L186.525 169.038C190.425 172.938 196.725 172.938 200.625 169.038L253.125 116.538L270.725 134.138L218.225 186.638C214.325 190.538 214.325 196.838 218.225 200.738L270.725 253.238L253.125 270.838L200.625 218.338C198.625 216.338 196.125 215.438 193.525 215.438C190.925 215.438 188.425 216.438 186.425 218.338L133.925 270.838L116.325 253.238L168.925 200.738Z" fill="#0E0B16"/>
</g>
<defs>
<clipPath id="clip0">
<rect width="387.25" height="387.25" fill="white"/>
</clipPath>
</defs>
</svg>
