<svg width="78" height="277" viewBox="0 0 78 277" fill="none" xmlns="http://www.w3.org/2000/svg">
<path d="M8.27668 130.01L7.41629 136.903C7.41629 136.903 3.85804 162.505 6.32257 175.738C8.78709 188.972 13.4391 202.489 13.7161 205.652C13.9932 208.815 12.3453 221.183 14.263 231.254C16.1807 241.325 19.7389 261.167 19.7389 261.167L16.7275 268.65C16.7275 268.65 10.4277 272.961 9.61102 274.401C9.49102 274.562 9.40897 274.75 9.37157 274.951C9.33416 275.151 9.34246 275.358 9.3958 275.555C9.44914 275.751 9.54601 275.931 9.67846 276.081C9.81092 276.231 9.97519 276.345 10.1579 276.415H29.8449C30.4483 274.864 30.7292 273.196 30.6689 271.522V251.388C30.6689 249.374 31.7626 215.148 32.8563 209.106C33.95 203.063 35.0438 157.328 35.0438 157.328H36.1448C36.1448 157.328 41.3509 202.772 42.7071 207.666C44.0634 212.56 49.8309 233.551 51.4569 237.871C53.0829 242.19 55.0225 257.139 56.1162 260.884C57.1635 264.272 57.9869 267.731 58.5807 271.238C58.8612 273.01 59.3207 274.746 59.9515 276.415H74.7897C74.7897 276.415 75.0668 273.827 73.9658 272.104C72.8648 270.38 65.7556 262.914 64.6546 257.43C63.5535 251.947 66.3024 226.636 66.0399 217.737C65.7774 208.838 63.2983 207.666 63.2983 199.9C63.2983 192.135 66.0399 168.547 66.0399 157.328C66.0399 146.108 64.5816 135.769 61.9056 129.865L58.0995 125.974H10.9745L8.27668 130.01Z" fill="#D9D9D9" stroke="#263238" stroke-linecap="round" stroke-linejoin="round"/>
<path d="M66.8785 262.569V262.607C66.8785 262.607 63.0431 260.019 61.6723 262.033C60.3015 264.047 60.3015 265.196 60.3015 265.196H57.3849C57.9254 267.181 58.3515 269.199 58.661 271.238C58.9414 273.01 59.401 274.746 60.0318 276.415H74.7897C74.7897 276.415 75.0668 273.827 73.9658 272.103C73.1929 270.878 69.4232 266.789 66.8785 262.569Z" fill="#7E57C2" stroke="#263238" stroke-linecap="round" stroke-linejoin="round"/>
<path d="M60.0026 276.415H74.7897C74.8437 275.749 74.8265 275.079 74.7387 274.416H59.3391C59.6745 275.565 60.0026 276.415 60.0026 276.415Z" fill="#512996" stroke="#263238" stroke-linecap="round" stroke-linejoin="round"/>
<path d="M30.698 271.521V266.635H25.4919C25.4919 266.635 25.769 264.338 23.3044 262.607C20.8399 260.876 18.3681 264.905 18.3681 264.905H18.2368L16.7275 268.642C16.7275 268.642 10.4276 272.954 9.61099 274.393C9.49099 274.554 9.40895 274.742 9.37154 274.943C9.33413 275.143 9.34243 275.35 9.39577 275.547C9.44911 275.743 9.54598 275.924 9.67844 276.073C9.8109 276.223 9.97517 276.337 10.1579 276.408H29.8449C30.4572 274.861 30.748 273.195 30.698 271.521V271.521Z" fill="#7E57C2" stroke="#263238" stroke-linecap="round" stroke-linejoin="round"/>
<path d="M9.59643 274.416C9.47974 274.578 9.40084 274.766 9.36608 274.966C9.33132 275.165 9.34166 275.37 9.3963 275.565C9.45093 275.759 9.54832 275.938 9.68061 276.085C9.8129 276.233 9.97637 276.346 10.1579 276.415H29.8449C30.1121 275.776 30.3031 275.105 30.4136 274.416H9.59643Z" fill="#512996" stroke="#263238" stroke-linecap="round" stroke-linejoin="round"/>
<path d="M64.5817 246.823C65.041 237.028 66.2077 223.71 66.04 217.721C65.7702 208.799 63.2983 207.651 63.2983 199.885C63.2983 192.12 66.04 168.547 66.04 157.328C66.04 146.108 64.5816 135.769 61.9057 129.865L58.0995 125.974H10.9745L8.27668 130.01L7.41629 136.903C7.41629 136.903 3.85804 162.505 6.32257 175.738C8.7871 188.972 13.4391 202.489 13.7161 205.652C13.9932 208.815 12.3453 221.183 14.263 231.254C15.1088 235.673 16.2609 241.976 17.2963 247.658C21.7092 248.709 26.2355 249.139 30.7564 248.937C30.9897 240.612 31.9376 214.329 32.8855 209.113C33.9792 203.071 35.073 157.335 35.073 157.335H36.1448C36.1448 157.335 41.3509 202.78 42.7072 207.674C44.0634 212.567 49.831 233.559 51.457 237.878C52.1861 239.716 52.9153 243.484 53.6444 247.497C57.2902 248.174 61.0362 247.943 64.5817 246.823Z" fill="#512996" stroke="#263238" stroke-linecap="round" stroke-linejoin="round"/>
<path d="M39.4624 154.739L54.2495 142.371" stroke="#263238" stroke-linecap="round" stroke-linejoin="round"/>
<path d="M17.8213 143.52L25.4919 150.136" stroke="#263238" stroke-linecap="round" stroke-linejoin="round"/>
<path d="M49.9986 4.12968C49.9986 4.12968 43.7061 0.223918 43.8519 2.32997C43.9977 4.43602 46.7102 5.9294 46.7102 5.9294C46.7102 5.9294 37.6979 4.58152 36.2688 5.16356C34.8396 5.7456 37.275 6.51909 37.275 6.51909C37.275 6.51909 26.119 15.5253 22.2618 21.6827C18.4046 27.84 14.9703 36.8539 18.9733 43.7617C22.9764 50.6696 28.8387 56.0764 38.7041 59.0785C48.5695 62.0805 58.2891 58.9253 64.866 56.0764C71.4429 53.2275 77.9907 45.1096 76.8751 34.901C75.7595 24.6924 67.1264 14.0396 60.688 6.84074C54.2496 -0.358118 50.2538 0.714054 50.2538 1.73262C50.2366 2.538 50.1512 3.34018 49.9986 4.12968V4.12968Z" fill="#263238" stroke="#263238" stroke-linecap="round" stroke-linejoin="round"/>
<path d="M34.5698 46.7868L33.1115 58.3432C33.1115 58.3432 22.6701 61.9427 18.8129 63.5969C14.9557 65.2511 13.2349 67.3495 12.5203 69.1492C11.8058 70.9489 1.58308 95.9535 1.14559 98.3276C0.708102 100.702 1.42997 101.781 4.5726 103.283C7.71524 104.784 16.4577 99.2312 16.4577 99.2312L17.6025 103.436C17.6025 103.436 11.8787 113.644 10.8797 116.945C9.88081 120.246 8.30585 130.01 8.30585 130.01C8.30585 130.01 19.1702 135.716 36.3271 135.272C53.484 134.827 61.9202 129.865 61.9202 129.865C61.9202 129.865 60.0609 120.1 58.063 114.395C56.0652 108.689 54.3444 106.438 54.3444 104.186C54.3444 101.935 60.6369 90.2173 60.6369 90.2173L73.922 96.7959C73.922 96.7959 70.7867 85.4156 69.9263 77.7572C69.0659 70.0988 67.5857 68.8505 64.7202 66.1471C61.8546 63.4437 49.2841 59.5456 48.8539 59.2546C48.4237 58.9636 49.4226 46.3426 49.4226 46.3426C49.4226 46.3426 38.5728 49.3447 34.5698 46.7868Z" fill="#D9D9D9" stroke="#263238" stroke-linecap="round" stroke-linejoin="round"/>
<path d="M42.8675 54.6978C44.8654 53.932 47.2424 51.9485 49.109 50.1718C49.2622 48.0198 49.3934 46.3426 49.3934 46.3426C49.3934 46.3426 38.5728 49.36 34.5698 46.8021L33.5854 54.4604C35.8021 56.5435 39.4187 56.061 42.8675 54.6978Z" fill="#263238" stroke="#263238" stroke-linecap="round" stroke-linejoin="round"/>
<path d="M58.0193 114.395C56.0141 108.689 54.3006 106.438 54.3006 104.186C54.3006 101.935 60.5932 90.2174 60.5932 90.2174L73.8783 96.7959C73.8783 96.7959 70.743 85.4156 69.8826 77.7572C69.4232 73.614 68.767 71.3548 67.8191 69.7159C47.4466 72.4346 24.7992 67.5563 15.7651 65.2511C14.3307 66.1818 13.1914 67.5383 12.4912 69.1492C11.762 70.9566 1.55392 95.9535 1.11643 98.3276C0.678942 100.702 1.40081 101.781 4.54345 103.283C7.68608 104.784 16.4578 99.2312 16.4578 99.2312L17.6025 103.436C17.6025 103.436 11.8787 113.644 10.8798 116.945C9.88082 120.246 8.30586 130.01 8.30586 130.01C8.30586 130.01 19.1702 135.716 36.3271 135.272C53.484 134.827 61.9203 129.865 61.9203 129.865C61.9203 129.865 60.0318 120.1 58.0193 114.395Z" fill="#7E57C2" stroke="#263238" stroke-linecap="round" stroke-linejoin="round"/>
<path d="M18.266 95.0958C18.266 95.0958 15.4223 88.8389 16.1952 85.5764C16.9681 82.3139 17.4931 81.4945 17.4931 81.4945" stroke="#263238" stroke-linecap="round" stroke-linejoin="round"/>
<path d="M69.8971 77.7572C69.4378 73.614 68.7815 71.3548 67.8336 69.7159C47.4612 72.4346 24.8138 67.5563 15.7796 65.2511C14.3453 66.1818 13.206 67.5384 12.5057 69.1492C12.2578 69.7848 10.8214 73.3 9.05688 77.6806C17.0775 79.9781 47.7966 87.9658 70.9398 84.2209C70.5023 81.9923 70.1232 79.7484 69.8971 77.7572Z" fill="#7E57C2" stroke="#263238" stroke-linecap="round" stroke-linejoin="round"/>
<path d="M37.3625 18.8644L55.5912 31.202L55.0881 36.1876C55.0881 36.1876 58.3401 32.7796 58.8432 36.4557C59.3464 40.1317 58.1141 41.9697 55.8391 43.0189C53.5642 44.0681 52.3392 43.7847 52.3392 43.7847C52.3392 43.7847 46.8414 50.0799 42.8603 51.6575C38.8791 53.2351 34.6209 53.6487 32.6521 50.2331C30.6834 46.8174 27.8835 40.6295 28.6345 36.9535C29.3856 33.2774 36.1448 18.8644 36.1448 18.8644H37.3625Z" fill="#D9D9D9" stroke="#263238" stroke-linecap="round" stroke-linejoin="round"/>
<path d="M39.1562 30.528C39.1526 31.4559 38.8492 32.3551 38.2958 33.0783C37.4427 33.982 35.4375 35.1843 35.4375 36.0804C35.4375 36.9764 37.2968 38.7838 39.0103 38.6383" stroke="#263238" stroke-linecap="round" stroke-linejoin="round"/>
<path d="M36.0062 40.5911C36.8551 41.1991 37.8645 41.5115 38.8916 41.484C39.9188 41.4565 40.9117 41.0906 41.7301 40.4379" stroke="#263238" stroke-linecap="round" stroke-linejoin="round"/>
<path d="M42.8748 32.7796C42.8748 32.7796 46.0175 31.5772 47.731 34.1275" stroke="#263238" stroke-linecap="round" stroke-linejoin="round"/>
<path d="M33.148 31.2786C33.148 31.2786 35.7219 30.0762 37.0125 31.5772" stroke="#263238" stroke-linecap="round" stroke-linejoin="round"/>
<path d="M34.7229 26.1705C35.1935 25.5649 35.8294 25.125 36.545 24.9101C37.2606 24.6951 38.0217 24.7154 38.726 24.9681" stroke="#263238" stroke-linecap="round" stroke-linejoin="round"/>
<path d="M44.304 26.4691C44.304 26.4691 48.307 26.6223 49.1602 30.5281" stroke="#263238" stroke-linecap="round" stroke-linejoin="round"/>
<path d="M7.70793 93.3803C7.70793 93.3803 3.27469 95.18 1.87472 98.0366C0.474756 100.893 0.729964 107.495 6.30067 109.149C11.8714 110.803 53.0538 102.088 53.0538 102.088C54.0627 103.706 55.1607 105.261 56.3423 106.744C57.3485 107.793 59.9224 109.899 60.0609 110.795C60.1994 111.691 60.4911 117.405 61.6359 117.688C62.7806 117.971 62.365 114.985 62.365 114.985C62.365 114.985 64.2244 112.136 64.2244 110.78C64.2244 109.425 64.5087 105.075 64.2244 104.025C63.94 102.976 57.2172 96.8189 55.7881 96.3671C54.359 95.9152 17.7556 94.8354 14.3286 94.261C10.9016 93.6866 8.8454 93.2195 7.70793 93.3803Z" fill="#D9D9D9" stroke="#263238" stroke-linecap="round" stroke-linejoin="round"/>
<path d="M44.1397 52.0532L48.518 55.1096C49.2927 55.6505 50.3381 55.4293 50.853 54.6156L59.68 40.6667C60.1949 39.853 59.9843 38.7549 59.2096 38.2141L54.8313 35.1577C54.0566 34.6168 53.0111 34.8381 52.4962 35.6518L43.6692 49.6006C43.1543 50.4143 43.3649 51.5124 44.1397 52.0532Z" fill="#7E57C2" stroke="#263238" stroke-miterlimit="10"/>
<path d="M57.2901 52.2931C57.2901 52.2931 58.1942 49.8578 59.0911 48.104C59.9879 46.3503 59.9952 45.5308 59.3536 45.5308C58.6679 45.6607 58.0336 45.9992 57.5293 46.5043C57.0251 47.0093 56.6732 47.6588 56.5172 48.3721C56.2056 49.8365 56.1194 51.3438 56.262 52.8369L57.2901 52.2931Z" fill="#D9D9D9" stroke="#263238" stroke-miterlimit="10"/>
<path d="M49.5538 61.6287C49.5538 61.6287 56.8963 53.9167 57.1515 53.2428C57.4067 52.5688 57.1516 43.7847 57.0422 41.3034C57.0442 41.1187 56.9825 40.9395 56.8686 40.7987C56.7547 40.658 56.5963 40.5652 56.4224 40.5376C56.3189 40.5141 56.2117 40.5146 56.1084 40.539C56.0051 40.5634 55.9081 40.6111 55.8241 40.6789C55.7401 40.7467 55.6712 40.8329 55.6222 40.9315C55.5732 41.0301 55.5452 41.1387 55.5401 41.2498L54.9641 48.3644L53.2798 39.4041C53.2518 39.2229 53.1628 39.0583 53.029 38.9402C52.8951 38.8221 52.7254 38.7584 52.5506 38.7608C52.4491 38.7604 52.3486 38.7822 52.2555 38.8249C52.1625 38.8677 52.079 38.9303 52.0104 39.0089C51.9417 39.0875 51.8895 39.1803 51.8569 39.2813C51.8244 39.3823 51.8123 39.4894 51.8215 39.5956L52.2954 49.5515L50.1809 41.0277C50.1546 40.9217 50.1086 40.8223 50.0455 40.7351C49.9824 40.648 49.9035 40.5749 49.8133 40.52C49.7231 40.4652 49.6234 40.4297 49.52 40.4156C49.4167 40.4015 49.3117 40.4091 49.2111 40.438C49.0301 40.4897 48.8726 40.6076 48.767 40.7705C48.6614 40.9334 48.6146 41.1305 48.6351 41.3264L49.5903 50.5164L47.7893 52.14V48.8928L45.6018 45.0637C45.5226 44.9257 45.397 44.824 45.2498 44.7786C45.1027 44.7332 44.9447 44.7475 44.807 44.8186V44.8186C44.6655 44.8914 44.5565 45.0194 44.5034 45.1753C44.4503 45.3312 44.4572 45.5027 44.5227 45.6533L45.981 49.0154C45.981 49.0154 43.1446 61.1922 43.0133 61.5981C42.8821 62.004 43.531 64.1713 43.9175 64.9831C44.3039 65.7949 61.5629 104.209 62.591 105.695C63.6191 107.181 70.5752 109.486 73.6668 105.963C76.7584 102.44 75.7303 98.9326 74.0532 94.8737C72.3762 90.8147 49.5538 61.6287 49.5538 61.6287Z" fill="#D9D9D9" stroke="#263238" stroke-miterlimit="10"/>
</svg>
