<?xml version="1.0" standalone="no"?><svg xmlns="http://www.w3.org/2000/svg" viewBox="0 0 1440 320"><path fill="#512996" fill-opacity="0.3" d="M0,128L34.3,133.3C68.6,139,137,149,206,154.7C274.3,160,343,160,411,154.7C480,149,549,139,617,128C685.7,117,754,107,823,101.3C891.4,96,960,96,1029,106.7C1097.1,117,1166,139,1234,138.7C1302.9,139,1371,117,1406,106.7L1440,96L1440,320L1405.7,320C1371.4,320,1303,320,1234,320C1165.7,320,1097,320,1029,320C960,320,891,320,823,320C754.3,320,686,320,617,320C548.6,320,480,320,411,320C342.9,320,274,320,206,320C137.1,320,69,320,34,320L0,320Z"></path></svg>