<svg width="225" height="290" viewBox="0 0 225 290" fill="none" xmlns="http://www.w3.org/2000/svg">
<path d="M83.1223 86.4317L83.6964 85.6383L93.0552 72.2464C93.0552 72.2464 94.3242 64.2573 94.9587 62.258C95.5932 60.2588 96.8622 56.046 97.2852 54.4911C97.7082 52.9361 98.1312 51.159 98.9772 51.8254C99.8232 52.4918 99.8232 55.1575 99.4002 56.4903C99.0274 57.7075 98.9547 59.004 99.1887 60.2588C99.4002 60.9252 110.602 50.9368 111.652 51.8254C112.702 52.7139 111.237 56.9346 109.122 59.8145C107.007 62.6944 98.3427 73.135 98.3427 73.135C98.3427 73.135 88.4098 101.101 85.4488 105.544C82.4878 109.986 81.8609 107.987 78.8999 105.544C75.9389 103.1 72.1017 97.5546 72.1017 97.5546L83.1223 86.4317Z" fill="#CECFCF" stroke="#263238" stroke-linecap="round" stroke-linejoin="round"/>
<path d="M98.5542 67.7878C98.5542 67.7878 99.6117 63.821 100.669 62.9007C101.727 61.9804 105.738 59.3543 105.738 59.3543L108.487 50.4687C108.487 50.4687 109.333 49.8023 109.122 51.8016C108.91 53.8008 108.487 58.2436 107.853 60.235C107.218 62.2263 104.469 65.7885 104.469 65.7885" fill="#CECFCF"/>
<path d="M98.5542 67.7878C98.5542 67.7878 99.6117 63.821 100.669 62.9007C101.727 61.9804 105.738 59.3543 105.738 59.3543L108.487 50.4687C108.487 50.4687 109.333 49.8023 109.122 51.8016C108.91 53.8008 108.487 58.2436 107.853 60.235C107.218 62.2263 104.469 65.7885 104.469 65.7885" stroke="#263238" stroke-linecap="round" stroke-linejoin="round"/>
<path d="M67.9095 52.468L84.1798 85.9874L71.7165 99.3078L68.121 86.6538L67.9095 52.468Z" fill="#7E57C2" stroke="#263238" stroke-linecap="round" stroke-linejoin="round"/>
<path d="M70.2209 94.0558L71.7165 99.3079L84.1798 85.9874L81.9364 81.37L70.2209 94.0558Z" fill="#263238" stroke="#263238" stroke-miterlimit="10"/>
<path d="M28.8955 273.18L27.3848 279.472C27.3848 279.472 18.5245 284.628 17.8447 285.342C17.1649 286.056 17.4292 289.063 17.4292 289.063H42.794C42.9229 286.758 42.7398 284.444 42.2502 282.193C41.8666 279.403 41.6321 276.593 41.5477 273.775L28.8955 273.18Z" fill="#263238" stroke="#263238" stroke-linecap="round" stroke-linejoin="round"/>
<path d="M17.4368 289.048H42.794C42.8235 288.474 42.8235 287.899 42.794 287.326H17.3915C17.3688 288.254 17.4368 289.048 17.4368 289.048Z" fill="#512996" stroke="#263238" stroke-linecap="round" stroke-linejoin="round"/>
<path d="M18.3961 285.081C20.1335 283.522 22.2642 282.528 24.5296 282.217C28.616 281.495 32.3021 283.074 33.1179 283.93C33.9337 284.787 34.4776 287.223 34.4776 287.223L17.3915 287.366C17.2643 287.154 17.1895 286.912 17.174 286.663C17.1585 286.413 17.2026 286.163 17.3025 285.936C17.4024 285.709 17.5547 285.512 17.7457 285.363C17.9367 285.213 18.1603 285.116 18.3961 285.081Z" fill="#512996" stroke="#263238" stroke-linecap="round" stroke-linejoin="round"/>
<path d="M40.2032 278.234C40.2032 279.781 39.6895 281.027 39.0475 281.027C38.4054 281.027 37.8842 279.781 37.8842 278.234C37.8842 276.687 38.4054 275.441 39.0475 275.441C39.6895 275.441 40.2032 276.695 40.2032 278.234Z" fill="#512996" stroke="#263238" stroke-linecap="round" stroke-linejoin="round"/>
<path d="M92.1941 273.18L93.7048 279.472C93.7048 279.472 102.565 284.628 103.245 285.342C103.925 286.056 103.653 289.063 103.653 289.063H78.2956C78.1621 286.758 78.3452 284.444 78.8395 282.193C79.2177 279.402 79.4497 276.592 79.5344 273.775L92.1941 273.18Z" fill="#263238" stroke="#263238" stroke-linecap="round" stroke-linejoin="round"/>
<path d="M103.645 289.048H78.2956C78.2529 288.475 78.2378 287.9 78.2503 287.326H103.698C103.71 287.9 103.692 288.475 103.645 289.048Z" fill="#512996" stroke="#263238" stroke-linecap="round" stroke-linejoin="round"/>
<path d="M102.694 285.081C100.955 283.525 98.8247 282.53 96.5601 282.217C92.4736 281.495 88.7875 283.074 87.9717 283.93C87.1559 284.787 86.6045 287.223 86.6045 287.223L103.698 287.366C103.825 287.154 103.9 286.912 103.916 286.663C103.931 286.413 103.887 286.163 103.787 285.936C103.687 285.709 103.535 285.512 103.344 285.363C103.153 285.213 102.929 285.116 102.694 285.081Z" fill="#512996" stroke="#263238" stroke-linecap="round" stroke-linejoin="round"/>
<path d="M80.8789 278.234C80.8789 279.781 81.4001 281.027 82.0422 281.027C82.6842 281.027 83.1978 279.781 83.1978 278.234C83.1978 276.687 82.6842 275.441 82.0422 275.441C81.4001 275.441 80.8789 276.695 80.8789 278.234Z" fill="#512996" stroke="#263238" stroke-linecap="round" stroke-linejoin="round"/>
<path d="M28.6085 139.626L27.77 153.51L28.8955 273.164L41.5477 273.759L54.2074 163.261L55.8994 162.665L79.5344 273.759L92.1941 273.164L86.5592 198.716L78.0539 134.819L28.6085 139.626Z" fill="#1C1B1E" stroke="#263238" stroke-linecap="round" stroke-linejoin="round"/>
<path d="M55.3178 143.395V153.526L57.9464 148.925L58.3921 142.014" stroke="#808080" stroke-linecap="round" stroke-linejoin="round"/>
<path d="M37.2648 50.913C37.2648 50.913 8.73513 64.0113 8.31213 65.3204C7.88914 66.6294 0.282728 99.7283 1.51395 102.83C2.27031 104.57 3.6245 105.945 5.30532 106.681C6.98614 107.417 8.86949 107.458 10.5782 106.797C14.5891 105.21 18.3961 89.0418 18.3961 89.0418C18.3961 89.0418 27.2715 117.452 27.2715 120.34C27.2715 123.228 28.1175 140.967 28.1175 140.967C28.1175 140.967 44.3878 143.403 57.9162 140.079C71.4446 136.754 77.9935 134.747 77.9935 134.747L71.6561 94.1272C71.6561 94.1272 68.2721 53.9516 67.8793 52.3966C67.4865 50.8416 43.3605 50.3973 41.4419 50.6195C39.5233 50.8416 37.2648 50.913 37.2648 50.913Z" fill="#7E57C2" stroke="#263238" stroke-linecap="round" stroke-linejoin="round"/>
<path d="M15.6239 98.6415C14.6545 95.3664 12.9229 92.397 10.5857 90.0018C8.22904 87.8042 5.09432 89.0498 2.94912 90.4144C1.81609 96.5787 1.0834 101.759 1.55172 102.894C2.30807 104.634 3.66226 106.009 5.34308 106.745C7.0239 107.48 8.90726 107.522 10.616 106.861C12.4515 106.147 14.2568 102.45 15.6239 98.6415Z" fill="#263238" stroke="#263238" stroke-miterlimit="10"/>
<path d="M23.9782 107.368L72.1017 96.7453L71.7165 94.2383C71.7165 94.2383 71.6409 93.4449 71.5276 92.009L22.6261 102.799C23.0793 104.274 23.5325 105.782 23.9782 107.368Z" fill="#263238"/>
<path d="M78.0539 134.819L73.3027 104.401L26.0554 114.715C26.6278 116.579 27.0547 118.49 27.3319 120.427C27.3319 123.307 28.1779 141.054 28.1779 141.054C28.1779 141.054 44.4482 143.49 57.9766 140.166C71.505 136.842 78.0539 134.819 78.0539 134.819Z" fill="#263238" stroke="#263238" stroke-miterlimit="10"/>
<path d="M41.4948 50.6909C39.5913 50.913 37.2648 50.913 37.2648 50.913C37.2648 50.913 31.9169 53.3724 25.8137 56.2682L50.5137 83.052C50.5137 83.052 55.8012 56.3396 55.3329 54.0389C55.1104 52.9612 54.8177 51.9009 54.4567 50.8654C48.3912 50.6353 42.4012 50.5877 41.4948 50.6909Z" fill="#263238" stroke="#263238" stroke-miterlimit="10"/>
<path d="M49.5242 43.146C49.5242 43.146 50.7932 54.6894 51.4277 56.9108C52.0622 59.1322 47.8322 74.6661 47.8322 74.6661C47.8322 74.6661 35.5728 61.5678 34.0923 57.7993C32.6118 54.0309 29.2354 40.9246 29.2354 40.9246C29.2354 40.9246 40.0143 46.7003 49.5242 43.146Z" fill="#CECFCF" stroke="#263238" stroke-linecap="round" stroke-linejoin="round"/>
<path d="M29.2354 40.9246C29.2354 40.9246 29.9907 43.9156 30.9727 47.446C31.4863 47.7475 32.1057 48.0886 32.8611 48.4853C36.7981 50.6749 41.282 51.5365 45.7021 50.9527C46.625 50.7937 47.4995 50.4093 48.2552 49.8306C49.0108 49.2518 49.6266 48.4949 50.0529 47.6206C49.7508 45.1373 49.5317 43.146 49.5317 43.146C40.0143 46.7003 29.2354 40.9246 29.2354 40.9246Z" fill="#263238" stroke="#263238" stroke-linecap="round" stroke-linejoin="round"/>
<path d="M44.0932 14.0139C44.0932 14.0139 47.2959 20.7495 49.4411 23.6691C51.5863 26.5887 55.0005 33.1101 53.5049 36.9261C52.0093 40.7422 51.0273 47.2398 46.2308 47.9379C41.8101 48.5152 37.3273 47.6511 33.3898 45.4627C29.5375 43.4396 29.1145 42.7652 29.1145 42.7652C29.1145 42.7652 25.9043 42.7652 23.9781 41.1785C22.052 39.5918 18.2072 34.665 19.2723 30.3968C20.3373 26.1285 22.9131 25.6763 22.9131 25.6763C22.9131 25.6763 17.5652 23.4311 20.9869 17.8141C24.4087 12.1971 31.6752 10.182 35.1045 10.182C38.5338 10.182 44.0932 14.0139 44.0932 14.0139Z" fill="#D9D9D9" stroke="#263238" stroke-linecap="round" stroke-linejoin="round"/>
<path d="M43.0206 21.4238C43.512 22.2398 44.1699 22.9308 44.9468 23.4469C46.4575 24.5735 48.58 23.8991 47.9682 25.9222C47.3563 27.9452 45.8305 28.6117 44.5464 28.3895" stroke="#263238" stroke-linecap="round" stroke-linejoin="round"/>
<path d="M48.157 30.8648C48.157 30.8648 44.0932 33.3322 41.3135 33.11C39.8643 33.0759 38.4545 32.608 37.2497 31.7613" stroke="#263238" stroke-linecap="round" stroke-linejoin="round"/>
<path d="M39.1834 33.11C39.1834 33.11 40.6941 38.727 42.8167 36.9261C44.1609 35.6903 45.0663 34.0122 45.3849 32.1659C43.4119 32.9678 41.2919 33.2905 39.1834 33.11Z" fill="#263238" stroke="#263238" stroke-linecap="round" stroke-linejoin="round"/>
<path d="M38.9643 23.3756C39.4327 24.1689 39.4478 25.0337 38.9643 25.3351C38.4809 25.6366 37.7558 25.2558 37.2799 24.4783C36.804 23.7008 36.7965 22.8202 37.2799 22.5108C37.7633 22.2014 38.4885 22.5901 38.9643 23.3756Z" fill="#263238"/>
<path d="M45.7928 19.98C46.2611 20.7733 46.2762 21.646 45.7928 21.9475C45.3093 22.249 44.5842 21.8682 44.1083 21.0827C43.6324 20.2973 43.6249 19.4246 44.1083 19.1231C44.5917 18.8217 45.3169 19.2025 45.7928 19.98Z" fill="#263238"/>
<path d="M34.4776 22.7012C34.4776 22.7012 35.0969 19.7023 37.3328 19.3056" stroke="#263238" stroke-linecap="round" stroke-linejoin="round"/>
<path d="M41.8045 18.0045C41.8045 18.0045 43.0508 15.5292 45.0374 16.5685" stroke="#263238" stroke-linecap="round" stroke-linejoin="round"/>
<path d="M23.5551 20.9796C23.5551 20.9796 37.4612 20.9796 38.5338 18.5043C39.6064 16.029 36.3886 14.236 36.3886 14.236C36.3886 14.236 48.3685 14.6883 49.6526 10.8643C50.9367 7.04028 45.3773 5.47737 43.6626 5.47737H41.0944C41.0944 5.47737 40.4524 -0.139609 34.2509 1.2091C28.0495 2.55781 16.0696 11.0943 14.6118 16.037C13.1539 20.9796 9.69441 22.5504 12.2626 28.3896C14.8308 34.2287 21.8858 38.9492 21.8858 38.9492C21.8858 38.9492 20.8132 34.6809 22.9584 34.4588C25.1036 34.2366 28.7293 35.7995 29.3714 35.7995C30.0134 35.7995 31.9396 34.0065 30.8821 32.88C29.8246 31.7534 28.7444 31.087 28.5329 30.4126C28.3214 29.7383 29.598 27.4931 28.7444 25.47C27.8909 23.4469 23.5551 20.9796 23.5551 20.9796Z" fill="#263238" stroke="#263238" stroke-linecap="round" stroke-linejoin="round"/>
<path d="M23.7519 29.1455L18.7947 32.606C17.9922 33.1662 17.774 34.3038 18.3074 35.1467L28.0746 50.5813C28.608 51.4243 29.691 51.6534 30.4936 51.0932L35.4507 47.6326C36.2533 47.0724 36.4715 45.9348 35.9381 45.0919L26.1709 29.6573C25.6374 28.8144 24.5544 28.5852 23.7519 29.1455Z" fill="#7E57C2" stroke="#263238" stroke-miterlimit="10"/>
<path d="M20.9945 47.9538C20.9945 47.9538 20.005 45.296 19.023 43.3682C18.0411 41.4403 18.0335 40.5597 18.736 40.5597C19.4803 40.7063 20.1676 41.078 20.7137 41.629C21.2598 42.18 21.6409 42.8865 21.8103 43.6617C22.1469 45.2652 22.2412 46.9144 22.0898 48.5488L20.9945 47.9538Z" fill="#512996" stroke="#263238" stroke-miterlimit="10"/>
<path d="M29.4469 58.1802C29.4469 58.1802 21.4175 49.7468 21.138 49.0089C20.8585 48.2711 21.1758 38.6953 21.2589 35.9423C21.2739 35.7502 21.3485 35.5685 21.4713 35.4251C21.5941 35.2818 21.7583 35.1848 21.9387 35.149C22.0525 35.1288 22.1691 35.1337 22.281 35.1634C22.3929 35.1932 22.4977 35.2471 22.5887 35.3218C22.6796 35.3964 22.7548 35.4901 22.8093 35.597C22.8639 35.7038 22.8967 35.8214 22.9055 35.9423L23.54 43.7172L25.3756 33.9113C25.4126 33.7133 25.5144 33.535 25.6634 33.4075C25.8124 33.28 25.9992 33.2112 26.1913 33.2132C26.3031 33.2141 26.4135 33.2387 26.5159 33.2855C26.6184 33.3323 26.7108 33.4003 26.7877 33.4855C26.8645 33.5707 26.9243 33.6712 26.9633 33.7812C27.0023 33.8912 27.0198 34.0083 27.0147 34.1255L26.4935 45.0501L28.8124 35.7281C28.8404 35.6122 28.8902 35.5034 28.9589 35.408C29.0276 35.3127 29.1137 35.2327 29.2122 35.1728C29.3108 35.1129 29.4197 35.0743 29.5327 35.0594C29.6456 35.0444 29.7603 35.0533 29.8699 35.0855C30.052 35.1395 30.2121 35.2551 30.3254 35.4143C30.4387 35.5734 30.499 35.7674 30.4968 35.9661L29.4469 46.0021L31.4184 47.7792V44.225L33.7826 40.0519C33.8668 39.8985 34.004 39.785 34.1656 39.7348C34.3273 39.6845 34.5012 39.7015 34.6513 39.7822C34.8039 39.8641 34.921 40.0042 34.9786 40.1738C35.0361 40.3434 35.0298 40.5297 34.961 40.6945L33.3899 44.3757C33.3899 44.3757 36.4944 57.6883 36.6303 58.1326C36.7663 58.5768 36.0714 60.949 35.6484 61.8375C35.2254 62.7261 16.3415 104.75 15.2538 106.377C14.1661 108.003 6.52193 110.518 3.16816 106.67C-0.185603 102.822 0.902104 98.9747 2.74517 94.5398C4.58823 90.1049 29.4469 58.1802 29.4469 58.1802Z" fill="#D9D9D9" stroke="#263238" stroke-miterlimit="10"/>
<path d="M32.2644 148.195L42.9602 154.692" stroke="#808080" stroke-linecap="round" stroke-linejoin="round"/>
<path d="M75.5839 143.76L69.1181 152.622" stroke="#808080" stroke-linecap="round" stroke-linejoin="round"/>
<path d="M155.277 132.01L154.416 138.903C154.416 138.903 150.858 164.505 153.323 177.738C155.787 190.972 160.439 204.489 160.716 207.652C160.993 210.815 159.345 223.183 161.263 233.254C163.181 243.325 166.739 263.167 166.739 263.167L163.728 270.65C163.728 270.65 157.428 274.961 156.611 276.401C156.491 276.562 156.409 276.75 156.372 276.951C156.334 277.151 156.342 277.358 156.396 277.555C156.449 277.751 156.546 277.931 156.678 278.081C156.811 278.231 156.975 278.345 157.158 278.415H176.845C177.448 276.864 177.729 275.196 177.669 273.521V253.388C177.669 251.374 178.763 217.148 179.856 211.106C180.95 205.063 182.044 159.328 182.044 159.328H183.145C183.145 159.328 188.351 204.772 189.707 209.666C191.063 214.56 196.831 235.551 198.457 239.871C200.083 244.19 202.022 259.139 203.116 262.884C204.163 266.272 204.987 269.731 205.581 273.238C205.861 275.01 206.321 276.746 206.952 278.415H221.79C221.79 278.415 222.067 275.827 220.966 274.104C219.865 272.38 212.756 264.913 211.655 259.43C210.554 253.947 213.302 228.636 213.04 219.737C212.777 210.838 210.298 209.666 210.298 201.9C210.298 194.135 213.04 170.547 213.04 159.328C213.04 148.108 211.582 137.769 208.906 131.865L205.099 127.974H157.975L155.277 132.01Z" fill="#D9D9D9" stroke="#263238" stroke-linecap="round" stroke-linejoin="round"/>
<path d="M213.878 264.569V264.607C213.878 264.607 210.043 262.019 208.672 264.033C207.302 266.047 207.302 267.196 207.302 267.196H204.385C204.925 269.181 205.351 271.199 205.661 273.238C205.941 275.01 206.401 276.746 207.032 278.415H221.79C221.79 278.415 222.067 275.827 220.966 274.103C220.193 272.878 216.423 268.789 213.878 264.569Z" fill="#7E57C2" stroke="#263238" stroke-linecap="round" stroke-linejoin="round"/>
<path d="M207.003 278.415H221.79C221.844 277.749 221.827 277.079 221.739 276.416H206.339C206.674 277.565 207.003 278.415 207.003 278.415Z" fill="#512996" stroke="#263238" stroke-linecap="round" stroke-linejoin="round"/>
<path d="M177.698 273.521V268.635H172.492C172.492 268.635 172.769 266.338 170.304 264.607C167.84 262.876 165.368 266.905 165.368 266.905H165.237L163.728 270.642C163.728 270.642 157.428 274.954 156.611 276.393C156.491 276.554 156.409 276.742 156.372 276.943C156.334 277.143 156.342 277.35 156.396 277.547C156.449 277.743 156.546 277.924 156.678 278.073C156.811 278.223 156.975 278.337 157.158 278.408H176.845C177.457 276.861 177.748 275.195 177.698 273.521Z" fill="#7E57C2" stroke="#263238" stroke-linecap="round" stroke-linejoin="round"/>
<path d="M156.596 276.416C156.48 276.578 156.401 276.766 156.366 276.966C156.331 277.165 156.342 277.37 156.396 277.565C156.451 277.759 156.548 277.938 156.681 278.085C156.813 278.233 156.976 278.346 157.158 278.415H176.845C177.112 277.776 177.303 277.105 177.414 276.416H156.596Z" fill="#512996" stroke="#263238" stroke-linecap="round" stroke-linejoin="round"/>
<path d="M211.582 248.823C212.041 239.028 213.208 225.71 213.04 219.721C212.77 210.799 210.298 209.651 210.298 201.885C210.298 194.12 213.04 170.547 213.04 159.328C213.04 148.108 211.582 137.769 208.906 131.865L205.099 127.974H157.975L155.277 132.01L154.416 138.903C154.416 138.903 150.858 164.505 153.323 177.738C155.787 190.972 160.439 204.489 160.716 207.652C160.993 210.815 159.345 223.183 161.263 233.254C162.109 237.673 163.261 243.976 164.296 249.658C168.709 250.709 173.236 251.139 177.756 250.937C177.99 242.612 178.938 216.329 179.886 211.113C180.979 205.071 182.073 159.335 182.073 159.335H183.145C183.145 159.335 188.351 204.78 189.707 209.674C191.063 214.567 196.831 235.559 198.457 239.878C199.186 241.716 199.915 245.484 200.644 249.497C204.29 250.174 208.036 249.943 211.582 248.823Z" fill="#512996" stroke="#263238" stroke-linecap="round" stroke-linejoin="round"/>
<path d="M186.462 156.739L201.25 144.371" stroke="#263238" stroke-linecap="round" stroke-linejoin="round"/>
<path d="M164.821 145.52L172.492 152.136" stroke="#263238" stroke-linecap="round" stroke-linejoin="round"/>
<path d="M196.999 6.12968C196.999 6.12968 190.706 2.22392 190.852 4.32997C190.998 6.43602 193.71 7.9294 193.71 7.9294C193.71 7.9294 184.698 6.58153 183.269 7.16356C181.84 7.7456 184.275 8.51909 184.275 8.51909C184.275 8.51909 173.119 17.5253 169.262 23.6827C165.405 29.84 161.97 38.8539 165.973 45.7617C169.976 52.6696 175.839 58.0764 185.704 61.0785C195.57 64.0805 205.289 60.9253 211.866 58.0764C218.443 55.2275 224.991 47.1096 223.875 36.901C222.759 26.6924 214.126 16.0396 207.688 8.84074C201.25 1.64188 197.254 2.71405 197.254 3.73262C197.237 4.538 197.151 5.34018 196.999 6.12968Z" fill="#263238" stroke="#263238" stroke-linecap="round" stroke-linejoin="round"/>
<path d="M181.57 48.7868L180.112 60.3432C180.112 60.3432 169.67 63.9427 165.813 65.5969C161.956 67.2511 160.235 69.3495 159.52 71.1492C158.806 72.9489 148.583 97.9535 148.146 100.328C147.708 102.702 148.43 103.781 151.573 105.283C154.715 106.784 163.458 101.231 163.458 101.231L164.603 105.436C164.603 105.436 158.879 115.644 157.88 118.945C156.881 122.246 155.306 132.01 155.306 132.01C155.306 132.01 166.17 137.716 183.327 137.272C200.484 136.827 208.92 131.865 208.92 131.865C208.92 131.865 207.061 122.1 205.063 116.395C203.065 110.689 201.344 108.438 201.344 106.186C201.344 103.935 207.637 92.2173 207.637 92.2173L220.922 98.7959C220.922 98.7959 217.787 87.4156 216.926 79.7572C216.066 72.0988 214.586 70.8505 211.72 68.1471C208.855 65.4437 196.284 61.5456 195.854 61.2546C195.424 60.9636 196.423 48.3426 196.423 48.3426C196.423 48.3426 185.573 51.3447 181.57 48.7868Z" fill="#D9D9D9" stroke="#263238" stroke-linecap="round" stroke-linejoin="round"/>
<path d="M189.868 56.6978C191.865 55.932 194.242 53.9485 196.109 52.1718C196.262 50.0198 196.393 48.3426 196.393 48.3426C196.393 48.3426 185.573 51.36 181.57 48.8021L180.585 56.4604C182.802 58.5435 186.419 58.061 189.868 56.6978Z" fill="#263238" stroke="#263238" stroke-linecap="round" stroke-linejoin="round"/>
<path d="M205.019 116.395C203.014 110.689 201.301 108.438 201.301 106.186C201.301 103.935 207.593 92.2174 207.593 92.2174L220.878 98.7959C220.878 98.7959 217.743 87.4156 216.883 79.7572C216.423 75.614 215.767 73.3548 214.819 71.7159C194.447 74.4346 171.799 69.5563 162.765 67.2511C161.331 68.1818 160.191 69.5383 159.491 71.1492C158.762 72.9566 148.554 97.9535 148.116 100.328C147.679 102.702 148.401 103.781 151.543 105.283C154.686 106.784 163.458 101.231 163.458 101.231L164.603 105.436C164.603 105.436 158.879 115.644 157.88 118.945C156.881 122.246 155.306 132.01 155.306 132.01C155.306 132.01 166.17 137.716 183.327 137.272C200.484 136.827 208.92 131.865 208.92 131.865C208.92 131.865 207.032 122.1 205.019 116.395Z" fill="#7E57C2" stroke="#263238" stroke-linecap="round" stroke-linejoin="round"/>
<path d="M165.266 97.0958C165.266 97.0958 162.422 90.8389 163.195 87.5764C163.968 84.3139 164.493 83.4945 164.493 83.4945" stroke="#263238" stroke-linecap="round" stroke-linejoin="round"/>
<path d="M216.897 79.7572C216.438 75.614 215.782 73.3548 214.834 71.7159C194.461 74.4346 171.814 69.5563 162.78 67.2511C161.345 68.1818 160.206 69.5384 159.506 71.1492C159.258 71.7848 157.821 75.3 156.057 79.6806C164.078 81.9781 194.797 89.9658 217.94 86.2209C217.502 83.9923 217.123 81.7484 216.897 79.7572Z" fill="#7E57C2" stroke="#263238" stroke-linecap="round" stroke-linejoin="round"/>
<path d="M184.362 20.8644L202.591 33.202L202.088 38.1876C202.088 38.1876 205.34 34.7796 205.843 38.4557C206.346 42.1317 205.114 43.9697 202.839 45.0189C200.564 46.0681 199.339 45.7847 199.339 45.7847C199.339 45.7847 193.841 52.0799 189.86 53.6575C185.879 55.2351 181.621 55.6487 179.652 52.2331C177.683 48.8174 174.884 42.6295 175.635 38.9535C176.386 35.2774 183.145 20.8644 183.145 20.8644H184.362Z" fill="#D9D9D9" stroke="#263238" stroke-linecap="round" stroke-linejoin="round"/>
<path d="M186.156 32.528C186.153 33.4559 185.849 34.3551 185.296 35.0783C184.443 35.982 182.438 37.1843 182.438 38.0804C182.438 38.9764 184.297 40.7838 186.01 40.6383" stroke="#263238" stroke-linecap="round" stroke-linejoin="round"/>
<path d="M183.006 42.5911C183.855 43.1991 184.864 43.5115 185.892 43.484C186.919 43.4565 187.912 43.0906 188.73 42.4379" stroke="#263238" stroke-linecap="round" stroke-linejoin="round"/>
<path d="M189.875 34.7796C189.875 34.7796 193.017 33.5772 194.731 36.1275" stroke="#263238" stroke-linecap="round" stroke-linejoin="round"/>
<path d="M180.148 33.2786C180.148 33.2786 182.722 32.0762 184.012 33.5772" stroke="#263238" stroke-linecap="round" stroke-linejoin="round"/>
<path d="M181.723 28.1705C182.194 27.5649 182.829 27.125 183.545 26.9101C184.261 26.6951 185.022 26.7154 185.726 26.9681" stroke="#263238" stroke-linecap="round" stroke-linejoin="round"/>
<path d="M191.304 28.4691C191.304 28.4691 195.307 28.6223 196.16 32.5281" stroke="#263238" stroke-linecap="round" stroke-linejoin="round"/>
<path d="M154.708 95.3803C154.708 95.3803 150.275 97.18 148.875 100.037C147.475 102.893 147.73 109.495 153.301 111.149C158.871 112.803 200.054 104.088 200.054 104.088C201.063 105.706 202.161 107.261 203.342 108.744C204.348 109.793 206.922 111.899 207.061 112.795C207.199 113.691 207.491 119.405 208.636 119.688C209.781 119.971 209.365 116.985 209.365 116.985C209.365 116.985 211.224 114.136 211.224 112.78C211.224 111.425 211.509 107.075 211.224 106.025C210.94 104.976 204.217 98.8189 202.788 98.3671C201.359 97.9152 164.756 96.8354 161.329 96.261C157.902 95.6866 155.845 95.2195 154.708 95.3803Z" fill="#D9D9D9" stroke="#263238" stroke-linecap="round" stroke-linejoin="round"/>
<path d="M191.14 54.0532L195.518 57.1096C196.293 57.6505 197.338 57.4293 197.853 56.6156L206.68 42.6667C207.195 41.853 206.984 40.7549 206.21 40.2141L201.831 37.1577C201.057 36.6168 200.011 36.8381 199.496 37.6518L190.669 51.6006C190.154 52.4143 190.365 53.5124 191.14 54.0532Z" fill="#7E57C2" stroke="#263238" stroke-miterlimit="10"/>
<path d="M204.29 54.2931C204.29 54.2931 205.194 51.8578 206.091 50.104C206.988 48.3503 206.995 47.5308 206.354 47.5308C205.668 47.6607 205.034 47.9992 204.529 48.5043C204.025 49.0093 203.673 49.6588 203.517 50.3721C203.206 51.8365 203.119 53.3438 203.262 54.8369L204.29 54.2931Z" fill="#D9D9D9" stroke="#263238" stroke-miterlimit="10"/>
<path d="M196.554 63.6287C196.554 63.6287 203.896 55.9167 204.152 55.2428C204.407 54.5688 204.152 45.7847 204.042 43.3034C204.044 43.1187 203.983 42.9395 203.869 42.7987C203.755 42.658 203.596 42.5652 203.422 42.5376C203.319 42.5141 203.212 42.5146 203.108 42.539C203.005 42.5634 202.908 42.6111 202.824 42.6789C202.74 42.7467 202.671 42.8329 202.622 42.9315C202.573 43.0301 202.545 43.1387 202.54 43.2498L201.964 50.3644L200.28 41.4041C200.252 41.2229 200.163 41.0583 200.029 40.9402C199.895 40.8221 199.725 40.7584 199.551 40.7608C199.449 40.7604 199.349 40.7822 199.256 40.8249C199.163 40.8677 199.079 40.9303 199.01 41.0089C198.942 41.0875 198.889 41.1803 198.857 41.2813C198.824 41.3823 198.812 41.4894 198.821 41.5956L199.295 51.5515L197.181 43.0277C197.155 42.9217 197.109 42.8223 197.046 42.7351C196.982 42.648 196.904 42.5749 196.813 42.52C196.723 42.4652 196.623 42.4297 196.52 42.4156C196.417 42.4015 196.312 42.4091 196.211 42.438C196.03 42.4897 195.873 42.6076 195.767 42.7705C195.661 42.9334 195.615 43.1305 195.635 43.3264L196.59 52.5164L194.789 54.14V50.8928L192.602 47.0637C192.523 46.9257 192.397 46.824 192.25 46.7786C192.103 46.7332 191.945 46.7475 191.807 46.8186C191.665 46.8914 191.557 47.0194 191.503 47.1753C191.45 47.3312 191.457 47.5027 191.523 47.6533L192.981 51.0154C192.981 51.0154 190.145 63.1922 190.013 63.5981C189.882 64.004 190.531 66.1713 190.917 66.9831C191.304 67.7949 208.563 106.209 209.591 107.695C210.619 109.181 217.575 111.486 220.667 107.963C223.758 104.44 222.73 100.933 221.053 96.8737C219.376 92.8147 196.554 63.6287 196.554 63.6287Z" fill="#D9D9D9" stroke="#263238" stroke-miterlimit="10"/>
</svg>
